<?xml version="1.0" encoding="UTF-8"?>
<svg width="334px" height="333px" viewBox="0 0 334 333" version="1.1" xmlns="http://www.w3.org/2000/svg" xmlns:xlink="http://www.w3.org/1999/xlink">
    <title>Group 3</title>
    <g id="Design" stroke="none" stroke-width="1" fill="none" fill-rule="evenodd">
        <g id="Events_Spoton-Copy" transform="translate(-1586.000000, -247.000000)" fill-rule="nonzero">
            <g id="Group-3" transform="translate(1586.000000, 247.000000)">
                <g id="Group" transform="translate(250.500000, 249.500000) rotate(-270.000000) translate(-250.500000, -249.500000) translate(167.000000, 166.000000)" fill="#72DADB">
                    <rect id="Rectangle" x="0" y="0" width="28" height="83.5"></rect>
                    <rect id="Rectangle" x="28" y="83.5" width="28" height="83.5"></rect>
                    <rect id="Rectangle" x="56" y="0" width="28" height="83.5"></rect>
                    <rect id="Rectangle" x="83" y="83.5" width="28" height="83.5"></rect>
                    <rect id="Rectangle" x="111" y="0" width="28" height="83.5"></rect>
                    <rect id="Rectangle" x="139" y="83.5" width="28" height="83.5"></rect>
                </g>
                <g id="Spot_On_DD_V4-07-Copy" transform="translate(167.000000, 0.000000)" fill="#00548D">
                    <path d="M83.0304879,5.19570715e-06 C49.4579499,-0.011831769 19.1845958,20.2026625 6.32873533,51.2162429 C-6.52712514,82.2298232 0.566670664,117.93388 24.3018535,141.677437 C48.0370363,165.420993 83.738591,172.527384 114.756707,159.682467 C145.774823,146.837549 166,116.571331 166,82.9987931 C166,37.1712619 128.858019,0.01617531 83.0304879,5.19570715e-06 Z M83.530168,139 C61.0775015,139.011869 40.8296161,125.49428 32.2318655,104.752992 C23.6341148,84.0117028 28.3805234,60.1333933 44.2569583,44.2569583 C60.1333933,28.3805234 84.0117028,23.6341148 104.752992,32.2318655 C125.49428,40.8296161 139.011869,61.0775015 139,83.530168 C138.983791,114.158593 114.158593,138.983791 83.530168,139 Z" id="Shape"></path>
                    <ellipse id="Oval" transform="translate(82.872811, 82.820318) rotate(-9.220000) translate(-82.872811, -82.820318) " cx="82.8728105" cy="82.8203181" rx="27.7894287" ry="27.7259441"></ellipse>
                </g>
                <g id="Spot_On_DD_V4-31-Copy-3" transform="translate(83.500000, 249.500000) rotate(-360.000000) translate(-83.500000, -249.500000) translate(0.000000, 166.000000)" fill="#FFC54A">
                    <polygon id="Path" transform="translate(83.500000, 83.500000) rotate(-90.000000) translate(-83.500000, -83.500000) " points="111.352972 111.352972 111.352972 55.6764862 55.6764862 55.6764862 55.6764862 3.51244596e-13 1.82478338e-12 3.51223751e-13 1.82480437e-12 55.6764862 1.82482536e-12 111.352972 1.81890752e-12 167 55.6764862 167 111.352972 167 167 167 167 111.352972"></polygon>
                </g>
            </g>
        </g>
    </g>
</svg>