<?xml version="1.0" encoding="UTF-8"?>
<svg width="333px" height="333px" viewBox="0 0 333 333" version="1.1" xmlns="http://www.w3.org/2000/svg" xmlns:xlink="http://www.w3.org/1999/xlink">
    <title>Group 3</title>
    <g id="Design" stroke="none" stroke-width="1" fill="none" fill-rule="evenodd">
        <g id="Home_Spoton-Copy" transform="translate(0.000000, -247.000000)" fill-rule="nonzero">
            <g id="Group-3" transform="translate(0.000000, 247.000000)">
                <g id="Spot_On_DD_V4-48-Copy" transform="translate(250.000000, 249.500000) rotate(-360.000000) translate(-250.000000, -249.500000) translate(167.000000, 166.000000)" fill="#72DADB">
                    <polyline id="Path" points="166 167 0 167 0 0"></polyline>
                </g>
                <g id="Spot_On_DD_V4-07-Copy" transform="translate(0.000000, 166.000000)" fill="#F63F56">
                    <path d="M83.5306716,5.22700581e-06 C49.7558893,-0.0119030447 19.3001656,20.3243653 6.36686024,51.5247745 C-6.56644517,82.7251836 0.570084342,118.644325 24.4482502,142.530915 C48.326416,166.417505 84.2430403,173.566706 115.448012,160.644409 C146.652985,147.722113 167,117.273568 167,83.4987859 C167,37.3951852 129.634273,0.0162727516 83.5306716,5.22700581e-06 Z M84.0333618,139.837349 C61.4454382,139.84929 41.0755777,126.25027 32.4260333,105.384034 C23.776489,84.5177974 28.5514904,60.4956427 44.5235665,44.5235665 C60.4956427,28.5514904 84.5177974,23.776489 105.384034,32.4260333 C126.25027,41.0755777 139.84929,61.4454382 139.837349,84.0333618 C139.821043,114.846295 114.846295,139.821043 84.0333618,139.837349 Z" id="Shape"></path>
                    <ellipse id="Oval" transform="translate(83.369055, 83.316248) rotate(-9.220000) translate(-83.369055, -83.316248) " cx="83.3690549" cy="83.3162481" rx="27.9558324" ry="27.8919677"></ellipse>
                </g>
                <g id="Spot_On_DD_V4-31-Copy-3" transform="translate(83.500000, 83.000000) rotate(-360.000000) translate(-83.500000, -83.000000) " fill="#FFC54A">
                    <polygon id="Path" points="111.352972 110.686188 111.352972 55.343094 55.6764862 55.343094 55.6764862 0 0 0 0 55.343094 0 110.686188 0 166 55.6764862 166 111.352972 166 167 166 167 110.686188"></polygon>
                </g>
            </g>
        </g>
    </g>
</svg>