<?xml version="1.0" encoding="UTF-8"?>
<svg width="334px" height="500px" viewBox="0 0 334 500" version="1.1" xmlns="http://www.w3.org/2000/svg" xmlns:xlink="http://www.w3.org/1999/xlink">
    <title>Group 2</title>
    <g id="Design" stroke="none" stroke-width="1" fill="none" fill-rule="evenodd">
        <g id="Home_Spoton-Copy" transform="translate(-1586.000000, -80.000000)" fill-rule="nonzero">
            <g id="Group-2" transform="translate(1586.000000, 80.000000)">
                <g id="Spot_On_DD_V4-69-Copy" transform="translate(167.000000, 333.000000)" fill="#FFD2C2">
                    <path d="M0,0 L84,0 L84,83 L46.4888889,83 C20.8137845,83 0,62.4339986 0,37.0645503 L0,0 Z" id="Path"></path>
                    <path d="M0,83 L84,83 L84,120.494707 C84,146.178871 63.1862155,167 37.5111111,167 L0,167 L0,83 Z" id="Path"></path>
                    <path d="M84,83 L121.048342,83 C146.381063,83 166.935417,103.748881 167,129.386733 L167,167 L84,167 L84,83 Z" id="Path"></path>
                    <path d="M129.83451,0 L167,0 L167,83 L84,83 L84,45.9354497 C84,20.6116644 104.501871,0.0645603193 129.83451,0 L129.83451,0 Z" id="Path"></path>
                </g>
                <g id="Group" transform="translate(250.500000, 83.500000) rotate(-270.000000) translate(-250.500000, -83.500000) translate(167.000000, 0.000000)" fill="#F63F56">
                    <rect id="Rectangle" x="0" y="0" width="27.8333333" height="83.5"></rect>
                    <rect id="Rectangle" x="27.8333333" y="83.5" width="27.8333333" height="83.5"></rect>
                    <rect id="Rectangle" x="55.6666667" y="0" width="27.8333333" height="83.5"></rect>
                    <rect id="Rectangle" x="83.5" y="83.5" width="27.8333333" height="83.5"></rect>
                    <rect id="Rectangle" x="111.333333" y="0" width="27.8333333" height="83.5"></rect>
                    <rect id="Rectangle" x="139.166667" y="83.5" width="27.8333333" height="83.5"></rect>
                </g>
                <g id="Spot_On_DD_V4-58" transform="translate(167.000000, 167.000000)" fill="#00548D">
                    <polygon id="Path" points="139.161757 0 0 138.328453 0 166 27.8382431 166 167 27.671547 167 0"></polygon>
                    <polygon id="Path" points="0 0 0 27 27 0"></polygon>
                    <polygon id="Path" points="167 166 167 139 140 166"></polygon>
                    <polygon id="Path" points="111.014819 166 167 110.514686 167 55 55 166"></polygon>
                    <polygon id="Path" points="56 0 0 55.5 0 111 112 0"></polygon>
                </g>
                <g id="Spot_On_DD_V4-29-Copy" transform="translate(0.000000, 333.000000)" fill="#FFC54A">
                    <path d="M166.99999,41.7426302 C166.99999,18.6888121 148.311167,0 125.257349,0 L41.7426302,0 C18.6955454,0.0162475103 0.0162475103,18.6955454 0,41.7426302 L0,124.992223 L0,124.992223 L0,125.257349 C0,148.311167 18.6888121,166.99999 41.7426302,166.99999 L125.257349,166.99999 C136.330579,167.007802 146.952526,162.612443 154.782484,154.782484 C162.612443,146.952526 167.007802,136.330579 166.99999,125.257349 L166.99999,124.992223 L166.99999,124.992223 L166.99999,41.7426302 Z M41.246988,83.1447233 L41.246988,41.246988 L124.746988,41.246988 L124.746988,124.746988 L41.246988,124.746988 L41.246988,83.1447233 Z" id="Shape"></path>
                </g>
            </g>
        </g>
    </g>
</svg>