<?xml version="1.0" encoding="UTF-8"?>
<svg width="503px" height="336px" viewBox="0 0 503 336" version="1.1" xmlns="http://www.w3.org/2000/svg" xmlns:xlink="http://www.w3.org/1999/xlink">
    <title>Group 3</title>
    <g id="Design" stroke="none" stroke-width="1" fill="none" fill-rule="evenodd">
        <g id="About_Spoton-Copy" transform="translate(-1418.000000, -80.000000)" fill-rule="nonzero">
            <g id="Group-3" transform="translate(1669.500000, 248.000000) rotate(-270.000000) translate(-1669.500000, -248.000000) translate(1502.000000, -3.000000)">
                <polygon id="Path" fill="#72DADB" transform="translate(84.000000, 251.000000) rotate(-90.000000) translate(-84.000000, -251.000000) " points="111.852972 278.852972 111.852972 223.176486 56.1764862 223.176486 56.1764862 167.5 0.5 167.5 0.5 223.176486 0.5 278.852972 0.5 334.5 56.1764862 334.5 111.852972 334.5 167.5 334.5 167.5 278.852972"></polygon>
                <g id="Spot_On_DD_V4-69-Copy" transform="translate(167.500000, 334.500000)" fill="#FFD2C2">
                    <path d="M0,0 L84,0 L84,83 L46.4888889,83 C20.8137845,83 0,62.4339986 0,37.0645503 L0,0 Z" id="Path"></path>
                    <path d="M0,83 L84,83 L84,120.494707 C84,146.178871 63.1862155,167 37.5111111,167 L0,167 L0,83 Z" id="Path"></path>
                    <path d="M84,83 L121.048342,83 C146.381063,83 166.935417,103.748881 167,129.386733 L167,167 L84,167 L84,83 Z" id="Path"></path>
                    <path d="M129.83451,0 L167,0 L167,83 L84,83 L84,45.9354497 C84,20.6116644 104.501871,0.0645603193 129.83451,0 L129.83451,0 Z" id="Path"></path>
                </g>
                <g id="Spot_On_DD_V4-08-Copy" transform="translate(251.000000, 84.000000) rotate(-270.000000) translate(-251.000000, -84.000000) translate(167.500000, 0.500000)" fill="#F63F56">
                    <g id="Group" transform="translate(-0.000000, -0.000000)">
                        <rect id="Rectangle" x="-6.09290396e-13" y="-1.80809725e-12" width="28" height="83.497006"></rect>
                        <rect id="Rectangle" x="28" y="83.497006" width="28" height="83.497006"></rect>
                        <rect id="Rectangle" x="56" y="-1.80809725e-12" width="28" height="83.497006"></rect>
                        <rect id="Rectangle" x="84" y="83.497006" width="28" height="83.497006"></rect>
                        <rect id="Rectangle" x="111" y="-1.80809725e-12" width="28" height="83.497006"></rect>
                        <rect id="Rectangle" x="139" y="83.497006" width="28" height="83.497006"></rect>
                    </g>
                </g>
                <g id="Spot_On_DD_V4-58" transform="translate(167.500000, 167.500000)" fill="#00548D">
                    <polygon id="Path" points="139.161757 0 0 139.161757 0 167 27.8382431 167 167 27.8382431 167 0"></polygon>
                    <polygon id="Path" points="0 0 0 27.1626506 27.1626506 0"></polygon>
                    <polygon id="Path" points="167 167 167 139.837349 139.837349 167"></polygon>
                    <polygon id="Path" points="111.180438 167 167 111.180438 167 55.3313253 55.3313253 167"></polygon>
                    <polygon id="Path" points="55.8343373 0 0 55.8343373 0 111.668675 111.668675 0"></polygon>
                </g>
                <g id="Spot_On_DD_V4-29-Copy" transform="translate(0.500000, 334.500000)" fill="#FFC54A">
                    <path d="M166.99999,41.7426302 C166.99999,18.6888121 148.311167,0 125.257349,0 L41.7426302,0 C18.6955454,0.0162475103 0.0162475103,18.6955454 0,41.7426302 L0,124.992223 L0,124.992223 L0,125.257349 C0,148.311167 18.6888121,166.99999 41.7426302,166.99999 L125.257349,166.99999 C136.330579,167.007802 146.952526,162.612443 154.782484,154.782484 C162.612443,146.952526 167.007802,136.330579 166.99999,125.257349 L166.99999,124.992223 L166.99999,124.992223 L166.99999,41.7426302 Z M41.246988,83.14862 L41.246988,41 L124.746988,41 L124.746988,125 L41.246988,125 L41.246988,83.14862 Z" id="Shape"></path>
                </g>
            </g>
        </g>
    </g>
</svg>