<?xml version="1.0" encoding="UTF-8"?>
<svg width="334px" height="334px" viewBox="0 0 334 334" version="1.1" xmlns="http://www.w3.org/2000/svg" xmlns:xlink="http://www.w3.org/1999/xlink">
    <title>Spot_On_DD_V4-48 Copy 2</title>
    <g id="Design" stroke="none" stroke-width="1" fill="none" fill-rule="evenodd">
        <g id="About_Spoton-Copy" transform="translate(-626.000000, -349.000000)" fill-rule="nonzero">
            <g id="Spot_On_DD_V4-48-Copy-2" transform="translate(793.000000, 516.000000) rotate(-180.000000) translate(-793.000000, -516.000000) translate(626.000000, 349.000000)">
                <g id="Spot_On_DD_V4-48-Copy" transform="translate(167.000000, 167.000000) rotate(-180.000000) translate(-167.000000, -167.000000) ">
                    <g id="Group-8" transform="translate(167.000000, 167.000000) rotate(-180.000000) translate(-167.000000, -167.000000) ">
                        <polyline id="Path" fill="#72DADB" points="334 334 167 334 167 167"></polyline>
                        <g id="Spot_On_DD_V4-07-Copy" transform="translate(83.500000, 250.500000) rotate(360.000000) translate(-83.500000, -250.500000) translate(0.000000, 167.000000)" fill="#F63F56">
                            <path d="M83.2252349,5.20789283e-06 C49.5739529,-0.0118595203 19.229593,20.2500477 6.3435793,51.33637 C-6.54243443,82.4226923 0.567999783,118.210493 24.3588532,142.009739 C48.1497066,165.808986 83.9349989,172.932045 115.025868,160.057 C146.116736,147.181955 166.389351,116.844748 166.389351,83.1934658 C166.389351,37.2584467 129.160254,0.016213249 83.2252349,5.20789283e-06 Z M83.2252349,138.626432 C60.7874891,138.638293 40.5530592,125.129688 31.9610221,104.402185 C23.368985,83.6746806 28.1122393,59.8122408 43.9781238,43.9463575 C59.8440083,28.0804741 83.7064498,23.3372201 104.433955,31.9292566 C125.16146,40.5212931 138.670066,60.7557216 138.658205,83.1934658 C138.642007,113.801535 113.833306,138.610234 83.2252349,138.626432 Z" id="Shape"></path>
                            <ellipse id="Oval" transform="translate(82.987812, 83.176572) rotate(-9.220000) translate(-82.987812, -83.176572) " cx="82.9878116" cy="83.1765715" rx="27.7894287" ry="27.7259441"></ellipse>
                        </g>
                        <g id="Spot_On_DD_V4-31-Copy-3" transform="translate(0.000000, 0.000000)" fill="#FFC54A">
                            <polygon id="Path" points="111.352972 111.352972 111.352972 55.6764862 55.6764862 55.6764862 55.6764862 -7.27595761e-12 1.8189894e-12 -7.27595761e-12 1.8189894e-12 55.6764862 1.8189894e-12 111.352972 1.8189894e-12 167 55.6764862 167 111.352972 167 167 167 167 111.352972"></polygon>
                        </g>
                    </g>
                </g>
            </g>
        </g>
    </g>
</svg>