<?xml version="1.0" encoding="UTF-8"?>
<svg width="333px" height="499px" viewBox="0 0 333 499" version="1.1" xmlns="http://www.w3.org/2000/svg" xmlns:xlink="http://www.w3.org/1999/xlink">
    <title>Group 2</title>
    <defs>
        <polygon id="path-1" points="0 0 166 0 166 166 0 166"></polygon>
    </defs>
    <g id="Design" stroke="none" stroke-width="1" fill="none" fill-rule="evenodd">
        <g id="Events_Spoton-Copy" transform="translate(1.000000, -81.000000)">
            <g id="Group-2" transform="translate(-1.000000, 81.000000)">
                <g id="Spot_On_DD_V4-48-Copy" transform="translate(250.000000, 416.000000) rotate(-360.000000) translate(-250.000000, -416.000000) translate(167.000000, 333.000000)" fill="#72DADB" fill-rule="nonzero">
                    <polyline id="Path" points="166 166 0 166 0 0"></polyline>
                </g>
                <path d="M166.99999,374.492674 C166.99999,351.576903 148.423076,333 125.507305,333 L42.4926743,333 C19.583596,333.01615 1.01615022,351.583596 1,374.492674 L1,457.243766 L1,457.243766 L1,457.507305 C1,480.423076 19.5769031,498.99999 42.4926743,498.99999 L125.507305,498.99999 C136.514228,499.007755 147.072571,494.638715 154.855643,486.855643 C162.638715,479.072571 167.007755,468.514228 166.99999,457.507305 L166.99999,457.243766 L166.99999,457.243766 L166.99999,374.492674 Z M42,415.646851 L42,374 L125,374 L125,457 L42,457 L42,415.646851 Z" id="Shape" fill="#FFC54A" fill-rule="nonzero"></path>
                <g id="Spot_On_DD_V4-58" transform="translate(0.000000, 166.000000)" fill="#00548D" fill-rule="nonzero">
                    <polygon id="Path" points="139.161757 0 0 139.161757 0 167 27.8382431 167 167 27.8382431 167 0"></polygon>
                    <polygon id="Path" points="0 0 0 27 27 0"></polygon>
                    <polygon id="Path" points="167 167 167 140 140 167"></polygon>
                    <polygon id="Path" points="111.014819 167 167 111.014819 167 55 55 167"></polygon>
                    <polygon id="Path" points="56 0 0 56 0 112 112 0"></polygon>
                </g>
                <g id="Pattern_sw_Zeichenfläche-1-Kopie-9" transform="translate(1.000000, 0.000000)">
                    <mask id="mask-2" fill="white">
                        <use xlink:href="#path-1"></use>
                    </mask>
                    <g id="Clip-2"></g>
                    <path d="M0,0 L0,42.137308 C22.5681188,42.137308 40.8626943,60.4321049 40.8626943,83 C40.8626943,105.568202 22.5681188,123.862846 0,123.862846 L0,166 C45.8396092,166 83,128.839779 83,83 C83,37.1605284 45.8396092,0 0,0" id="Fill-1" fill="#F63F56" mask="url(#mask-2)"></path>
                    <path d="M166,42.137308 L166,0 C120.160391,0 83,37.1605284 83,83 C83,128.839779 120.160391,166 166,166 L166,123.862846 C143.432342,123.862846 125.137306,105.568202 125.137306,83 C125.137306,60.4321049 143.432342,42.137308 166,42.137308" id="Fill-3" fill="#F63F56" mask="url(#mask-2)"></path>
                </g>
            </g>
        </g>
    </g>
</svg>