<svg width="337" height="501" xmlns="http://www.w3.org/2000/svg" xmlns:xlink="http://www.w3.org/1999/xlink"><defs><path id="a" d="M0 0h166.667v166.667H0z"/></defs><g fill="none" fill-rule="evenodd"><path d="M.889 1h166.667v166.667" fill="#72DADB" fill-rule="nonzero"/><path d="M167.556 126c0 23.015 18.651 41.667 41.666 41.667h83.334c23.008-.017 41.65-18.659 41.666-41.667V42.667C334.222 19.652 315.571 1 292.556 1h-83.334c-11.058-.008-21.659 4.379-30.555 11.111-6.733 8.896-11.12 19.497-11.111 30.556V126zm125-41.667V126h-83.334V42.667h83.334v41.666z" fill="#FFC54A" fill-rule="nonzero"/><g fill="#00548D" fill-rule="nonzero"><path d="M198.116 334.333L337 195.45v-27.782h-27.783L170.333 306.55v27.782zM337 334.333v-27.777l-27.778 27.777zM170.333 167.667v27.777l27.778-27.777zM225.874 167.667l-55.54 55.54v55.57l111.11-111.11zM281.444 334.333L337 278.778v-55.556L225.889 334.333z"/></g><g transform="rotate(-180 168.5 250.5)"><mask id="b" fill="#fff"><use xlink:href="#a"/></mask><path d="M0 0v42.307c22.659 0 41.027 18.368 41.027 41.026 0 22.66-18.368 41.027-41.027 41.027v42.307c46.024 0 83.333-37.31 83.333-83.334C83.333 37.31 46.023 0 0 0M166.667 42.307V0c-46.024 0-83.334 37.31-83.334 83.333 0 46.024 37.31 83.334 83.334 83.334V124.36c-22.659 0-41.027-18.368-41.027-41.027 0-22.658 18.368-41.026 41.027-41.026" fill="#F63F56" mask="url(#b)"/></g></g></svg>