<svg width="335" height="333" xmlns="http://www.w3.org/2000/svg"><g fill-rule="nonzero" fill="none"><g fill="#72DADB"><path d="M1 167v-27.833h83.5V167zM84.5 139.167v-27.833H168v27.833zM1 111.333V83.5h83.5v27.833zM84.5 83.5V55.667H168V83.5zM1 55.667V27.834h83.5v27.833zM84.5 27.833V0H168v27.833z"/></g><g transform="rotate(-180 83.5 166.5)" fill="#00548D"><path d="M83.225 0C49.574-.012 19.23 20.25 6.344 51.336-6.542 82.423.568 118.21 24.359 142.01c23.79 23.799 59.576 30.922 90.667 18.047 31.09-12.875 51.363-43.212 51.363-76.864C166.39 37.258 129.16.016 83.225 0zm0 138.626c-22.438.012-42.672-13.496-51.264-34.224-8.592-20.727-3.849-44.59 12.017-60.456s39.728-20.609 60.456-12.017c20.727 8.592 34.236 28.827 34.224 51.264-.016 30.609-24.825 55.417-55.433 55.433z"/><ellipse transform="rotate(-9.22 82.988 83.177)" cx="82.988" cy="83.177" rx="27.789" ry="27.726"/></g><path d="M223.638 111.695h55.473v-55.75h55.473V.195H168.195v167.221h55.443z" fill="#FFC54A"/></g></svg>